<svg xmlns="http://www.w3.org/2000/svg" version="1.1" xmlns:xlink="http://www.w3.org/1999/xlink" xmlns:svgjs="http://svgjs.dev/svgjs" width="2000" height="353" viewBox="0 0 2000 353"><g transform="matrix(1,0,0,1,-1.2121212121212466,-0.27579598155048757)"><svg viewBox="0 0 396 70" data-background-color="#dfdad6" preserveAspectRatio="xMidYMid meet" height="353" width="2000" xmlns="http://www.w3.org/2000/svg" xmlns:xlink="http://www.w3.org/1999/xlink"><g id="tight-bounds" transform="matrix(1,0,0,1,0.2400000000000091,0.05469042127063517)"><svg viewBox="0 0 395.52 69.89061915745874" height="69.89061915745874" width="395.52"><g><svg viewBox="0 0 488.63910483188175 86.3452912147214" height="69.89061915745874" width="395.52"><g><rect width="5.634375882839443" height="74.97420365967125" x="72.7350538630752" y="5.685543777525076" fill="#e33e33" opacity="1" stroke-width="0" stroke="transparent" fill-opacity="1" class="rect-qz-0" data-fill-palette-color="primary" rx="1%" id="qz-0" data-palette-color="#e33e33"></rect></g><g transform="matrix(1,0,0,1,93.11910483188176,11.933394082497678)"><svg viewBox="0 0 395.52 62.478503049726044" height="62.478503049726044" width="395.52"><g id="textblocktransform"><svg viewBox="0 0 395.52 62.478503049726044" height="62.478503049726044" width="395.52" id="textblock"><g><svg viewBox="0 0 395.52 62.478503049726044" height="62.478503049726044" width="395.52"><g transform="matrix(1,0,0,1,0,0)"><svg width="395.52" viewBox="1.34 -36.55 236.14 37.309999999999995" height="62.478503049726044" data-palette-color="#e33e33"><path d="M27.49-9.69L31.2-3.59Q28.76-1.49 25.73-0.37 22.71 0.76 19.46 0.76L19.46 0.76Q16.97 0.76 14.66 0.11 12.35-0.54 10.34-1.72 8.33-2.91 6.67-4.57 5-6.23 3.82-8.24 2.64-10.25 1.99-12.56 1.34-14.87 1.34-17.36L1.34-17.36Q1.34-19.85 1.99-22.17 2.64-24.49 3.82-26.5 5-28.52 6.67-30.18 8.33-31.84 10.34-33.02 12.35-34.2 14.66-34.85 16.97-35.5 19.46-35.5L19.46-35.5Q22.71-35.5 25.73-34.39 28.76-33.28 31.2-31.15L31.2-31.15 27.49-25.05Q25.95-26.71 23.85-27.6 21.75-28.49 19.46-28.49L19.46-28.49Q17.14-28.49 15.11-27.61 13.09-26.73 11.57-25.23 10.06-23.73 9.18-21.69 8.3-19.65 8.3-17.36L8.3-17.36Q8.3-15.06 9.18-13.05 10.06-11.04 11.57-9.52 13.09-8.01 15.11-7.13 17.14-6.25 19.46-6.25L19.46-6.25Q21.75-6.25 23.85-7.14 25.95-8.03 27.49-9.69L27.49-9.69ZM56.54-21.46L44.04-6.4Q44.43-6.27 44.82-6.24 45.21-6.2 45.6-6.2L45.6-6.2Q46.58-6.2 47.48-6.47 48.39-6.74 49.18-7.24 49.97-7.74 50.6-8.46 51.22-9.18 51.61-10.06L51.61-10.06 56.49-5.15Q55.56-3.83 54.36-2.78 53.15-1.73 51.74-1 50.34-0.27 48.79 0.11 47.24 0.49 45.6 0.49L45.6 0.49Q42.84 0.49 40.41-0.54 37.99-1.56 36.17-3.39 34.35-5.22 33.3-7.75 32.25-10.28 32.25-13.31L32.25-13.31Q32.25-16.41 33.3-18.97 34.35-21.53 36.17-23.34 37.99-25.15 40.41-26.15 42.84-27.15 45.6-27.15L45.6-27.15Q47.24-27.15 48.8-26.76 50.36-26.37 51.77-25.63 53.17-24.9 54.39-23.84 55.61-22.78 56.54-21.46L56.54-21.46ZM39.69-9.84L47.46-20.14Q46.99-20.31 46.54-20.36 46.09-20.41 45.6-20.41L45.6-20.41Q44.24-20.41 43.03-19.91 41.82-19.41 40.93-18.48 40.04-17.55 39.52-16.25 39.01-14.94 39.01-13.31L39.01-13.31Q39.01-12.94 39.05-12.48 39.08-12.01 39.17-11.54 39.26-11.06 39.38-10.62 39.5-10.18 39.69-9.84L39.69-9.84ZM66.6-36.55L66.6 0 59.88 0 59.88-36.55 66.6-36.55ZM94.57-21.46L82.07-6.4Q82.46-6.27 82.85-6.24 83.24-6.2 83.64-6.2L83.64-6.2Q84.61-6.2 85.51-6.47 86.42-6.74 87.21-7.24 88.01-7.74 88.63-8.46 89.25-9.18 89.64-10.06L89.64-10.06 94.52-5.15Q93.6-3.83 92.39-2.78 91.18-1.73 89.78-1 88.37-0.27 86.82 0.11 85.27 0.49 83.64 0.49L83.64 0.49Q80.88 0.49 78.45-0.54 76.02-1.56 74.2-3.39 72.38-5.22 71.33-7.75 70.28-10.28 70.28-13.31L70.28-13.31Q70.28-16.41 71.33-18.97 72.38-21.53 74.2-23.34 76.02-25.15 78.45-26.15 80.88-27.15 83.64-27.15L83.64-27.15Q85.27-27.15 86.83-26.76 88.4-26.37 89.8-25.63 91.2-24.9 92.42-23.84 93.64-22.78 94.57-21.46L94.57-21.46ZM77.73-9.84L85.49-20.14Q85.03-20.31 84.58-20.36 84.12-20.41 83.64-20.41L83.64-20.41Q82.27-20.41 81.06-19.91 79.85-19.41 78.96-18.48 78.07-17.55 77.56-16.25 77.04-14.94 77.04-13.31L77.04-13.31Q77.04-12.94 77.08-12.48 77.12-12.01 77.2-11.54 77.29-11.06 77.41-10.62 77.53-10.18 77.73-9.84L77.73-9.84ZM124.09-13.31L124.09-13.31Q124.09-10.23 123.04-7.69 121.99-5.15 120.18-3.33 118.37-1.51 115.94-0.51 113.52 0.49 110.73 0.49L110.73 0.49Q107.97 0.49 105.54-0.54 103.12-1.56 101.3-3.39 99.48-5.22 98.43-7.75 97.38-10.28 97.38-13.31L97.38-13.31 97.38-36.55 104.07-36.55 104.07-24.34Q104.6-25.02 105.37-25.56 106.14-26.1 107.03-26.44 107.92-26.78 108.88-26.97 109.83-27.15 110.73-27.15L110.73-27.15Q113.52-27.15 115.94-26.11 118.37-25.07 120.18-23.22 121.99-21.36 123.04-18.84 124.09-16.31 124.09-13.31ZM117.37-13.31L117.37-13.31Q117.37-14.82 116.85-16.13 116.32-17.43 115.42-18.38 114.52-19.34 113.31-19.87 112.1-20.41 110.73-20.41L110.73-20.41Q109.37-20.41 108.16-19.81 106.95-19.21 106.04-18.23 105.14-17.24 104.63-15.95 104.12-14.67 104.12-13.31L104.12-13.31Q104.12-11.79 104.63-10.5 105.14-9.2 106.04-8.25 106.95-7.3 108.16-6.75 109.37-6.2 110.73-6.2L110.73-6.2Q112.1-6.2 113.31-6.75 114.52-7.3 115.42-8.25 116.32-9.2 116.85-10.5 117.37-11.79 117.37-13.31ZM152.99-7.01L152.99 0 128.48 0 128.48-35.01 135.49-35.01 135.49-7.01 152.99-7.01ZM180.53-13.31L180.53-13.31Q180.53-10.38 179.48-7.85 178.43-5.32 176.62-3.48 174.81-1.64 172.38-0.57 169.96 0.49 167.17 0.49L167.17 0.49Q164.41 0.49 161.98-0.57 159.56-1.64 157.74-3.48 155.92-5.32 154.87-7.85 153.82-10.38 153.82-13.31L153.82-13.31Q153.82-16.28 154.87-18.82 155.92-21.36 157.74-23.21 159.56-25.05 161.98-26.1 164.41-27.15 167.17-27.15L167.17-27.15Q169.96-27.15 172.38-26.16 174.81-25.17 176.62-23.35 178.43-21.53 179.48-18.98 180.53-16.43 180.53-13.31ZM173.81-13.31L173.81-13.31Q173.81-14.92 173.29-16.22 172.76-17.53 171.86-18.47 170.96-19.41 169.75-19.91 168.54-20.41 167.17-20.41L167.17-20.41Q165.81-20.41 164.6-19.91 163.39-19.41 162.5-18.47 161.61-17.53 161.09-16.22 160.58-14.92 160.58-13.31L160.58-13.31Q160.58-11.79 161.09-10.5 161.61-9.2 162.5-8.25 163.39-7.3 164.6-6.75 165.81-6.2 167.17-6.2L167.17-6.2Q168.54-6.2 169.75-6.71 170.96-7.23 171.86-8.15 172.76-9.08 173.29-10.4 173.81-11.72 173.81-13.31ZM209.48-13.31L209.48-13.31Q209.48-10.38 208.43-7.85 207.38-5.32 205.57-3.48 203.77-1.64 201.34-0.57 198.91 0.49 196.13 0.49L196.13 0.49Q193.37 0.49 190.94-0.57 188.51-1.64 186.69-3.48 184.87-5.32 183.82-7.85 182.77-10.38 182.77-13.31L182.77-13.31Q182.77-16.28 183.82-18.82 184.87-21.36 186.69-23.21 188.51-25.05 190.94-26.1 193.37-27.15 196.13-27.15L196.13-27.15Q198.91-27.15 201.34-26.16 203.77-25.17 205.57-23.35 207.38-21.53 208.43-18.98 209.48-16.43 209.48-13.31ZM202.77-13.31L202.77-13.31Q202.77-14.92 202.24-16.22 201.72-17.53 200.81-18.47 199.91-19.41 198.7-19.91 197.49-20.41 196.13-20.41L196.13-20.41Q194.76-20.41 193.55-19.91 192.34-19.41 191.45-18.47 190.56-17.53 190.05-16.22 189.53-14.92 189.53-13.31L189.53-13.31Q189.53-11.79 190.05-10.5 190.56-9.2 191.45-8.25 192.34-7.3 193.55-6.75 194.76-6.2 196.13-6.2L196.13-6.2Q197.49-6.2 198.7-6.71 199.91-7.23 200.81-8.15 201.72-9.08 202.24-10.4 202.77-11.72 202.77-13.31ZM219.88-3.34L219.88 0 213.16 0 213.16-36.55 219.88-36.55 219.88-13.5 229.81-26.1 237.48-26.1 228.81-15.21 237.48 0 229.81 0 224.52-9.5 219.88-3.34Z" opacity="1" transform="matrix(1,0,0,1,0,0)" fill="#e33e33" class="wordmark-text-0" data-fill-palette-color="primary" id="text-0"></path></svg></g></svg></g></svg></g></svg></g><g><svg viewBox="0 0 57.98537877710806 86.3452912147214" height="86.3452912147214" width="57.98537877710806"><g><svg xmlns="http://www.w3.org/2000/svg" xmlns:xlink="http://www.w3.org/1999/xlink" version="1.1" x="0" y="0" viewBox="29.6 5 100.80000000000001 150.09999999999997" style="enable-background:new 0 0 160 160;" xml:space="preserve" height="86.3452912147214" width="57.98537877710806" class="icon-icon-0" data-fill-palette-color="accent" id="icon-0"><path d="M130.3 128.3c0-0.1 0-0.3-0.1-0.4l0 0 0 0c-0.1-0.6-0.2-1.2-0.4-1.8L106.4 17.3l0 0C104.7 10.1 93.9 5 80 5c-13.9 0-24.7 5.1-26.4 12.3l0 0-23.5 109c-0.2 0.7-0.4 1.4-0.4 1.9-0.1 0.6-0.1 1.2-0.1 1.7 0 9.5 9.7 17.7 25.8 22.1 7.4 2 15.9 3.1 24.6 3.1 8.7 0 17.2-1.1 24.6-3.1 16.2-4.3 25.8-12.6 25.8-22.1C130.4 129.3 130.4 128.7 130.3 128.3zM56.4 113.5c0-3.6 2.5-6.8 5.9-7.5l2.7-0.8L69 104l3.9-1.1c0.5-0.1 0.8-0.6 0.8-1.1V97l-0.2-0.2c-2-1.6-3.3-4-3.5-6.6-0.1-0.9-0.1-1.6-0.2-2H69c-0.8 0-1.4-0.6-1.5-1.3l-0.6-4c-0.2-1.2 0.7-2.2 1.9-2.2l0.2-7.6c0-4.6 3.7-8.4 8.3-8.4h5.4c4.6 0 8.3 3.7 8.3 8.4l0.2 7.6c1.2 0 2.1 1.1 1.9 2.2l-0.6 4c-0.1 0.8-0.8 1.3-1.5 1.3h-0.8c-0.1 0.4-0.1 1.1-0.2 2-0.2 2.6-1.5 5-3.5 6.6L86.2 97v4.8c0 0.5 0.4 1 0.8 1.1l8 2.3 2.7 0.8c3.4 0.7 5.8 3.8 5.8 7.5v30.4c-6.9 1.9-15 2.9-23.6 2.9-8.6 0-16.7-1.1-23.6-2.9V113.5z" fill="#ea6b62" data-fill-palette-color="accent"></path></svg></g></svg></g></svg></g><defs></defs></svg><rect width="395.52" height="69.89061915745874" fill="none" stroke="none" visibility="hidden"></rect></g></svg></g></svg>